<svg width="100" height="100" viewBox="0 0 100 100" fill="none" xmlns="http://www.w3.org/2000/svg">
<path d="M50 44.4444C63.8889 44.4444 75.6944 42.2685 85.4167 37.9166C95.1389 33.5648 100 28.3333 100 22.2222C100 16.1111 95.1389 10.8796 85.4167 6.52777C75.6944 2.17592 63.8889 0 50 0C36.1111 0 24.3056 2.17592 14.5833 6.52777C4.86111 10.8796 0 16.1111 0 22.2222C0 28.3333 4.86111 33.5648 14.5833 37.9166C24.3056 42.2685 36.1111 44.4444 50 44.4444ZM50 58.3333C53.7963 58.3333 58.5426 57.9388 64.2389 57.1499C69.9352 56.361 75.4204 55.0888 80.6944 53.3333C85.9685 51.5777 90.5055 49.287 94.3055 46.4611C98.1055 43.6351 100.004 40.1851 100 36.1111V49.9999C100 54.074 98.1018 57.524 94.3055 60.3499C90.5092 63.1759 85.9722 65.4666 80.6944 67.2222C75.4167 68.9777 69.9315 70.2518 64.2389 71.0444C58.5463 71.837 53.8 72.2296 50 72.2221C46.2 72.2147 41.4555 71.8203 35.7667 71.0388C30.0778 70.2573 24.5907 68.9851 19.3056 67.2222C14.0204 65.4592 9.48333 63.1684 5.69444 60.3499C1.90556 57.5314 0.00740741 54.0814 0 49.9999V36.1111C0 40.1851 1.89815 43.6351 5.69444 46.4611C9.49074 49.287 14.0278 51.5777 19.3056 53.3333C24.5833 55.0888 30.0704 56.3629 35.7667 57.1555C41.463 57.9481 46.2074 58.3407 50 58.3333ZM50 86.111C53.7963 86.111 58.5426 85.7166 64.2389 84.9277C69.9352 84.1388 75.4204 82.8666 80.6944 81.111C85.9685 79.3555 90.5055 77.0647 94.3055 74.2388C98.1055 71.4129 100.004 67.9629 100 63.8888V77.7777C100 81.8518 98.1018 85.3018 94.3055 88.1277C90.5092 90.9536 85.9722 93.2443 80.6944 94.9999C75.4167 96.7555 69.9315 98.0295 64.2389 98.8221C58.5463 99.6147 53.8 100.007 50 99.9999C46.2 99.9925 41.4555 99.598 35.7667 98.8166C30.0778 98.0351 24.5907 96.7629 19.3056 94.9999C14.0204 93.2369 9.48333 90.9462 5.69444 88.1277C1.90556 85.3092 0.00740741 81.8592 0 77.7777V63.8888C0 67.9629 1.89815 71.4129 5.69444 74.2388C9.49074 77.0647 14.0278 79.3555 19.3056 81.111C24.5833 82.8666 30.0704 84.1406 35.7667 84.9332C41.463 85.7258 46.2074 86.1184 50 86.111Z" fill="white"/>
</svg>
