<svg width="110" height="110" viewBox="0 0 110 110" fill="none" xmlns="http://www.w3.org/2000/svg">
<mask id="mask0_826_150" style="mask-type:luminance" maskUnits="userSpaceOnUse" x="8" y="17" width="94" height="76">
<path d="M93.9584 18.3333H16.0417C12.2448 18.3333 9.16675 21.4114 9.16675 25.2083V84.7917C9.16675 88.5886 12.2448 91.6667 16.0417 91.6667H93.9584C97.7554 91.6667 100.833 88.5886 100.833 84.7917V25.2083C100.833 21.4114 97.7554 18.3333 93.9584 18.3333Z" stroke="white" stroke-width="2" stroke-linejoin="round"/>
<path d="M9.16675 25.2083C9.16675 23.385 9.89108 21.6363 11.1804 20.347C12.4697 19.0577 14.2184 18.3333 16.0417 18.3333H93.9584C95.7818 18.3333 97.5305 19.0577 98.8198 20.347C100.109 21.6363 100.833 23.385 100.833 25.2083V45.8333H9.16675V25.2083Z" fill="white" stroke="white" stroke-width="2"/>
<path d="M18.3333 32.0833C18.3333 29.552 20.3854 27.5 22.9167 27.5C25.448 27.5 27.5 29.552 27.5 32.0833C27.5 34.6146 25.448 36.6667 22.9167 36.6667C20.3854 36.6667 18.3333 34.6146 18.3333 32.0833Z" fill="black"/>
<path d="M32.0833 32.0833C32.0833 29.552 34.1354 27.5 36.6667 27.5C39.198 27.5 41.25 29.552 41.25 32.0833C41.25 34.6146 39.198 36.6667 36.6667 36.6667C34.1354 36.6667 32.0833 34.6146 32.0833 32.0833Z" fill="black"/>
</mask>
<g mask="url(#mask0_826_150)">
<path d="M0 0H110V110H0V0Z" fill="white"/>
</g>
</svg>
