<svg xmlns="http://www.w3.org/2000/svg" width="1862" height="709" fill="none" viewBox="0 0 1862 709"><path fill="url(#a)" d="M1135.46-346.782c151.02-26.63 295.04 74.212 321.67 225.238 26.63 151.025-74.21 295.043-225.24 321.673l-201.65 35.557c-151.028 26.63-295.046-74.213-321.676-225.238-26.629-151.026 74.213-295.044 225.239-321.673l201.657-35.557z" filter="url(#b)"/><path fill="url(#c)" d="M1092.83-339.267c141.48-24.947 276.4 69.523 301.35 211.004 24.95 141.48-69.52 276.397-211.01 301.344l-176.31 31.089C865.382 229.117 730.465 134.647 705.519-6.834c-24.947-141.481 69.522-276.398 211.003-301.345l176.308-31.088z" filter="url(#d)"/><path fill="#53C4FF" d="M490.006-287.415c124.265-21.911 242.764 61.063 264.676 185.328 21.911 124.265-61.063 242.764-185.328 264.675l-809.005 142.649c-124.265 21.912-242.764-61.063-264.675-185.327-21.911-124.265 61.063-242.765 185.328-264.676l809.004-142.649z" filter="url(#e)" opacity=".2"/><path fill="url(#f)" d="M891.847-195.388c86.763-15.299 169.503 42.635 184.803 129.398 15.29 86.763-42.64 169.5-129.402 184.799l-154.401 27.225c-86.763 15.299-169.5-42.635-184.799-129.398-15.299-86.763 42.635-169.501 129.398-184.799l154.401-27.225z" filter="url(#g)" opacity=".6"/><path fill="url(#h)" d="M526.73-161.72c85.723-15.115 167.469 42.124 182.584 127.847C724.429 51.85 667.19 133.596 581.467 148.71l-214.089 37.75c-85.724 15.115-167.47-42.124-182.585-127.847C169.678-27.11 226.917-108.855 312.64-123.97l214.09-37.75z" filter="url(#i)" opacity=".8"/><path fill="url(#j)" d="M774.847-265.388c86.763-15.299 169.5 42.635 184.799 129.398 15.299 86.763-42.635 169.5-129.398 184.8L675.847 76.033c-86.763 15.3-169.5-42.633-184.799-129.397-15.299-86.763 42.635-169.501 129.398-184.799l154.401-27.225z" filter="url(#k)" opacity=".8"/><defs><filter id="b" width="1557.09" height="1391" x="304.3" y="-751.05" color-interpolation-filters="sRGB" filterUnits="userSpaceOnUse"><feFlood flood-opacity="0" result="BackgroundImageFix"/><feBlend in="SourceGraphic" in2="BackgroundImageFix" result="shape"/><feGaussianBlur result="effect1_foregroundBlur_790_1836" stdDeviation="200"/></filter><filter id="d" width="1496.65" height="1351.43" x="301.52" y="-743.26" color-interpolation-filters="sRGB" filterUnits="userSpaceOnUse"><feFlood flood-opacity="0" result="BackgroundImageFix"/><feBlend in="SourceGraphic" in2="BackgroundImageFix" result="shape"/><feGaussianBlur result="effect1_foregroundBlur_790_1836" stdDeviation="200"/></filter><filter id="e" width="2066.03" height="1399.67" x="-907.84" y="-690.92" color-interpolation-filters="sRGB" filterUnits="userSpaceOnUse"><feFlood flood-opacity="0" result="BackgroundImageFix"/><feBlend in="SourceGraphic" in2="BackgroundImageFix" result="shape"/><feGaussianBlur result="effect1_foregroundBlur_790_1836" stdDeviation="200"/></filter><filter id="g" width="873.5" height="746.32" x="405.6" y="-397.84" color-interpolation-filters="sRGB" filterUnits="userSpaceOnUse"><feFlood flood-opacity="0" result="BackgroundImageFix"/><feBlend in="SourceGraphic" in2="BackgroundImageFix" result="shape"/><feGaussianBlur result="effect1_foregroundBlur_790_1836" stdDeviation="100"/></filter><filter id="i" width="929.36" height="753.02" x="-17.63" y="-364.14" color-interpolation-filters="sRGB" filterUnits="userSpaceOnUse"><feFlood flood-opacity="0" result="BackgroundImageFix"/><feBlend in="SourceGraphic" in2="BackgroundImageFix" result="shape"/><feGaussianBlur result="effect1_foregroundBlur_790_1836" stdDeviation="100"/></filter><filter id="k" width="873.5" height="746.32" x="288.6" y="-467.84" color-interpolation-filters="sRGB" filterUnits="userSpaceOnUse"><feFlood flood-opacity="0" result="BackgroundImageFix"/><feBlend in="SourceGraphic" in2="BackgroundImageFix" result="shape"/><feGaussianBlur result="effect1_foregroundBlur_790_1836" stdDeviation="100"/></filter><radialGradient id="a" cx="0" cy="0" r="1" gradientTransform="matrix(68.19008 386.72514 -529.31546 93.3326 959.712 -2.68)" gradientUnits="userSpaceOnUse"><stop stop-color="#53C4FF" stop-opacity=".5"/><stop offset="1" stop-color="#2BA6FF" stop-opacity="0"/></radialGradient><radialGradient id="c" cx="0" cy="0" r="1" gradientTransform="rotate(80 479.295 548.932) scale(367.874 494.468)" gradientUnits="userSpaceOnUse"><stop stop-color="#53C4FF" stop-opacity=".3"/><stop offset="1" stop-color="#2BA6FF" stop-opacity="0"/></radialGradient><radialGradient id="f" cx="0" cy="0" r="1" gradientTransform="rotate(80 415.947 427.772) scale(225.598 336.46)" gradientUnits="userSpaceOnUse"><stop stop-color="#53C4FF" stop-opacity=".5"/><stop offset="1" stop-color="#2BA6FF" stop-opacity="0"/></radialGradient><radialGradient id="h" cx="0" cy="0" r="1" gradientTransform="rotate(80 190.93 206.847) scale(222.894 376.614)" gradientUnits="userSpaceOnUse"><stop stop-color="#53C4FF" stop-opacity=".5"/><stop offset="1" stop-color="#2BA6FF" stop-opacity="0"/></radialGradient><radialGradient id="j" cx="0" cy="0" r="1" gradientTransform="rotate(80 399.158 323.054) scale(225.598 336.46)" gradientUnits="userSpaceOnUse"><stop stop-color="#53C4FF" stop-opacity=".5"/><stop offset="1" stop-color="#2BA6FF" stop-opacity="0"/></radialGradient></defs></svg>