<svg width="24" height="24" viewBox="0 0 24 24" fill="none" xmlns="http://www.w3.org/2000/svg">
<path d="M11 10C11.55 10 12.021 9.80433 12.413 9.413C12.805 9.02167 13.0007 8.55067 13 8C12.9993 7.44933 12.8037 6.97867 12.413 6.588C12.0223 6.19733 11.5513 6.00133 11 6C10.4487 5.99867 9.978 6.19467 9.588 6.588C9.198 6.98133 9.002 7.452 9 8C8.998 8.548 9.194 9.019 9.588 9.413C9.982 9.807 10.4527 10.0027 11 10ZM11 14C11.75 14 12.4543 13.8417 13.113 13.525C13.7717 13.2083 14.3423 12.7583 14.825 12.175C14.2417 11.7917 13.6293 11.5 12.988 11.3C12.3467 11.1 11.684 11 11 11C10.316 11 9.65367 11.1 9.013 11.3C8.37233 11.5 7.75967 11.7917 7.175 12.175C7.65833 12.7583 8.229 13.2083 8.887 13.525C9.545 13.8417 10.2493 14 11 14ZM11 18C8.76667 18 6.875 17.225 5.325 15.675C3.775 14.125 3 12.2333 3 10C3 7.76667 3.775 5.875 5.325 4.325C6.875 2.775 8.76667 2 11 2C13.2333 2 15.125 2.775 16.675 4.325C18.225 5.875 19 7.76667 19 10C19 10.9333 18.85 11.8127 18.55 12.638C18.25 13.4633 17.8333 14.2173 17.3 14.9L21.3 18.9C21.4833 19.0833 21.575 19.3167 21.575 19.6C21.575 19.8833 21.4833 20.1167 21.3 20.3C21.1167 20.4833 20.8833 20.575 20.6 20.575C20.3167 20.575 20.0833 20.4833 19.9 20.3L15.9 16.3C15.2167 16.8333 14.4627 17.25 13.638 17.55C12.8133 17.85 11.934 18 11 18ZM11 16C12.6667 16 14.0833 15.4167 15.25 14.25C16.4167 13.0833 17 11.6667 17 10C17 8.33333 16.4167 6.91667 15.25 5.75C14.0833 4.58333 12.6667 4 11 4C9.33333 4 7.91667 4.58333 6.75 5.75C5.58333 6.91667 5 8.33333 5 10C5 11.6667 5.58333 13.0833 6.75 14.25C7.91667 15.4167 9.33333 16 11 16Z" fill="white"/>
</svg>
