<svg width="23" height="23" viewBox="0 0 23 23" fill="none" xmlns="http://www.w3.org/2000/svg">
<path d="M11.3 22.6L7.95 19.3H3.3V14.65L0 11.3L3.3 7.95V3.3H7.95L11.3 0L14.65 3.3H19.3V7.95L22.6 11.3L19.3 14.65V19.3H14.65L11.3 22.6ZM11.3 16.3C12.6833 16.3 13.8627 15.8123 14.838 14.837C15.8133 13.8617 16.3007 12.6827 16.3 11.3C16.2993 9.91733 15.8117 8.73833 14.837 7.763C13.8623 6.78767 12.6833 6.3 11.3 6.3C9.91667 6.3 8.73767 6.78767 7.763 7.763C6.78833 8.73833 6.30067 9.91733 6.3 11.3C6.29933 12.6827 6.787 13.862 7.763 14.838C8.739 15.814 9.918 16.3013 11.3 16.3ZM11.3 14.3C10.4667 14.3 9.75833 14.0083 9.175 13.425C8.59167 12.8417 8.3 12.1333 8.3 11.3C8.3 10.4667 8.59167 9.75833 9.175 9.175C9.75833 8.59167 10.4667 8.3 11.3 8.3C12.1333 8.3 12.8417 8.59167 13.425 9.175C14.0083 9.75833 14.3 10.4667 14.3 11.3C14.3 12.1333 14.0083 12.8417 13.425 13.425C12.8417 14.0083 12.1333 14.3 11.3 14.3Z" fill="white"/>
</svg>
