<svg width="100" height="100" viewBox="0 0 100 100" fill="none" xmlns="http://www.w3.org/2000/svg">
<path d="M11.4585 70.8334H43.8544L37.6044 77.0834H11.4585C10.6668 77.0831 9.9046 76.7824 9.32605 76.2418C8.74751 75.7013 8.39571 74.9613 8.34175 74.1714C8.28778 73.3815 8.53567 72.6005 9.03532 71.9863C9.53498 71.3721 10.2491 70.9705 11.0335 70.8625L11.4585 70.8334ZM11.4585 60.4167H42.9752C42.3489 59.5174 41.9334 58.4884 41.7595 57.4064C41.5857 56.3243 41.658 55.217 41.971 54.1667H11.4585L11.0335 54.1959C10.2491 54.3038 9.53498 54.7054 9.03532 55.3196C8.53567 55.9338 8.28778 56.7148 8.34175 57.5047C8.39571 58.2946 8.74751 59.0346 9.32605 59.5752C9.9046 60.1157 10.6668 60.4165 11.4585 60.4167ZM53.0002 67.5834C53.2863 67.2763 53.6313 67.0301 54.0146 66.8593C54.3979 66.6885 54.8118 66.5966 55.2313 66.5892C55.6509 66.5818 56.0677 66.659 56.4568 66.8162C56.846 66.9734 57.1994 67.2073 57.4962 67.504C57.7929 67.8008 58.0269 68.1543 58.184 68.5434C58.3412 68.9325 58.4184 69.3493 58.411 69.7689C58.4036 70.1885 58.3117 70.6023 58.1409 70.9856C57.9701 71.3689 57.7239 71.7139 57.4169 72L38.6669 90.75C38.0745 91.302 37.2909 91.6025 36.4813 91.5883C35.6718 91.574 34.8993 91.246 34.3268 90.6735C33.7542 90.1009 33.4262 89.3285 33.412 88.5189C33.3977 87.7093 33.6982 86.9258 34.2502 86.3334L53.0002 67.5834ZM11.4585 37.5H55.2085C56.0003 37.5003 56.7624 37.8011 57.341 38.3416C57.9195 38.8821 58.2713 39.6221 58.3253 40.412C58.3793 41.202 58.1314 41.9829 57.6317 42.5971C57.1321 43.2113 56.4179 43.613 55.6335 43.7209L55.2085 43.75H11.4585C10.6668 43.7498 9.9046 43.449 9.32605 42.9085C8.74751 42.368 8.39571 41.628 8.34175 40.838C8.28778 40.0481 8.53567 39.2672 9.03532 38.653C9.53498 38.0388 10.2491 37.6371 11.0335 37.5292L11.4585 37.5ZM11.4585 20.8334H88.5419C89.3336 20.8336 90.0958 21.1344 90.6743 21.6749C91.2529 22.2155 91.6047 22.9555 91.6586 23.7454C91.7126 24.5353 91.4647 25.3163 90.9651 25.9305C90.4654 26.5446 89.7512 26.9463 88.9669 27.0542L88.5419 27.0834H11.4585C10.6668 27.0831 9.9046 26.7824 9.32605 26.2418C8.74751 25.7013 8.39571 24.9613 8.34175 24.1714C8.28778 23.3814 8.53567 22.6005 9.03532 21.9863C9.53498 21.3721 10.2491 20.9705 11.0335 20.8625L11.4585 20.8334ZM68.7502 33.3334C69.5124 33.3337 70.2481 33.6126 70.8191 34.1175C71.39 34.6225 71.7567 35.3186 71.8502 36.075L72.4335 40.7834C72.802 43.7807 74.1619 46.5689 76.2969 48.7047C78.4319 50.8405 81.2196 52.2013 84.2169 52.5709L88.9252 53.15C89.6796 53.246 90.3731 53.6138 90.8757 54.1845C91.3784 54.7552 91.6557 55.4896 91.6557 56.25C91.6557 57.0105 91.3784 57.7449 90.8757 58.3156C90.3731 58.8862 89.6796 59.254 88.9252 59.35L84.2169 59.9334C81.2195 60.3019 78.4313 61.6617 76.2955 63.7968C74.1597 65.9318 72.7989 68.7195 72.4294 71.7167L71.8502 76.425C71.7542 77.1794 71.3864 77.8729 70.8157 78.3756C70.245 78.8782 69.5107 79.1555 68.7502 79.1555C67.9897 79.1555 67.2553 78.8782 66.6847 78.3756C66.114 77.8729 65.7462 77.1794 65.6502 76.425L65.0669 71.7167C64.6984 68.7193 63.3385 65.9312 61.2035 63.7954C59.0684 61.6596 56.2808 60.2988 53.2835 59.9292L48.5752 59.35C47.8208 59.254 47.1273 58.8862 46.6246 58.3156C46.122 57.7449 45.8447 57.0105 45.8447 56.25C45.8447 55.4896 46.122 54.7552 46.6246 54.1845C47.1273 53.6138 47.8208 53.246 48.5752 53.15L53.2835 52.5667C56.2809 52.1982 59.0691 50.8384 61.2048 48.7033C63.3406 46.5683 64.7015 43.7806 65.071 40.7834L65.6502 36.075C65.7437 35.3186 66.1104 34.6225 66.6813 34.1175C67.2522 33.6126 67.988 33.3337 68.7502 33.3334ZM68.7502 49.0584C67.0188 52.0399 64.5401 54.5187 61.5585 56.25C64.5401 57.9814 67.0188 60.4601 68.7502 63.4417C70.4816 60.4601 72.9603 57.9814 75.9419 56.25C72.9603 54.5187 70.4816 52.0399 68.7502 49.0584Z" fill="white"/>
</svg>
